<svg id="visual" viewBox="0 0 900 600" width="900" height="600" xmlns="http://www.w3.org/2000/svg" xmlns:xlink="http://www.w3.org/1999/xlink" version="1.1"><rect x="0" y="0" width="900" height="600" fill="#009473"></rect><path d="M0 54L180 88L360 52L540 47L720 32L900 42L900 601L720 601L540 601L360 601L180 601L0 601Z" fill="#00896b"></path><path d="M0 76L180 76L360 112L540 78L720 120L900 48L900 601L720 601L540 601L360 601L180 601L0 601Z" fill="#008568"></path><path d="M0 121L180 116L360 173L540 161L720 179L900 98L900 601L720 601L540 601L360 601L180 601L0 601Z" fill="#008165"></path><path d="M0 213L180 230L360 181L540 214L720 224L900 180L900 601L720 601L540 601L360 601L180 601L0 601Z" fill="#007d62"></path><path d="M0 219L180 273L360 241L540 257L720 192L900 235L900 601L720 601L540 601L360 601L180 601L0 601Z" fill="#007a5f"></path><path d="M0 311L180 259L360 270L540 234L720 296L900 296L900 601L720 601L540 601L360 601L180 601L0 601Z" fill="#00765c"></path><path d="M0 351L180 331L360 347L540 287L720 343L900 298L900 601L720 601L540 601L360 601L180 601L0 601Z" fill="#007259"></path><path d="M0 374L180 404L360 378L540 377L720 347L900 389L900 601L720 601L540 601L360 601L180 601L0 601Z" fill="#006e56"></path><path d="M0 403L180 406L360 370L540 373L720 432L900 386L900 601L720 601L540 601L360 601L180 601L0 601Z" fill="#006a53"></path><path d="M0 480L180 452L360 450L540 422L720 435L900 469L900 601L720 601L540 601L360 601L180 601L0 601Z" fill="#006750"></path><path d="M0 479L180 509L360 490L540 486L720 518L900 544L900 601L720 601L540 601L360 601L180 601L0 601Z" fill="#00634d"></path><path d="M0 574L180 548L360 517L540 545L720 576L900 587L900 601L720 601L540 601L360 601L180 601L0 601Z" fill="#005f4a"></path></svg>