<svg id="visual" viewBox="0 0 900 600" width="900" height="600" xmlns="http://www.w3.org/2000/svg" xmlns:xlink="http://www.w3.org/1999/xlink" version="1.1"><g stroke-width="1" stroke-linejoin="bevel"><path d="M471 325L463 360L560 371Z" fill="#bbbbbb" stroke="#bbbbbb"></path><path d="M560 371L618 336L471 325Z" fill="#c0c0c0" stroke="#c0c0c0"></path><path d="M473 186L420 263L471 325Z" fill="#c5c5c5" stroke="#c5c5c5"></path><path d="M471 325L375 380L463 360Z" fill="#c8c8c8" stroke="#c8c8c8"></path><path d="M420 263L375 380L471 325Z" fill="#cdcdcd" stroke="#cdcdcd"></path><path d="M463 360L472 497L560 371Z" fill="#d0d0d0" stroke="#d0d0d0"></path><path d="M375 380L472 497L463 360Z" fill="#bbbbbb" stroke="#bbbbbb"></path><path d="M560 371L620 517L618 336Z" fill="#bbbbbb" stroke="#bbbbbb"></path><path d="M726 430L662 316L618 336Z" fill="#bbbbbb" stroke="#bbbbbb"></path><path d="M619 207L473 186L471 325Z" fill="#c3c3c3" stroke="#c3c3c3"></path><path d="M619 207L471 325L618 336Z" fill="#bbbbbb" stroke="#bbbbbb"></path><path d="M662 316L619 207L618 336Z" fill="#bbbbbb" stroke="#bbbbbb"></path><path d="M473 186L386 204L420 263Z" fill="#c0c0c0" stroke="#c0c0c0"></path><path d="M420 263L307 278L375 380Z" fill="#cbcbcb" stroke="#cbcbcb"></path><path d="M472 497L620 517L560 371Z" fill="#bbbbbb" stroke="#bbbbbb"></path><path d="M334 481L393 530L472 497Z" fill="#d2d2d2" stroke="#d2d2d2"></path><path d="M472 497L570 600L620 517Z" fill="#c3c3c3" stroke="#c3c3c3"></path><path d="M307 278L303 411L375 380Z" fill="#d0d0d0" stroke="#d0d0d0"></path><path d="M375 380L334 481L472 497Z" fill="#c0c0c0" stroke="#c0c0c0"></path><path d="M473 186L425 111L386 204Z" fill="#bebebe" stroke="#bebebe"></path><path d="M619 207L478 137L473 186Z" fill="#c3c3c3" stroke="#c3c3c3"></path><path d="M386 204L307 278L420 263Z" fill="#c3c3c3" stroke="#c3c3c3"></path><path d="M303 411L334 481L375 380Z" fill="#bebebe" stroke="#bebebe"></path><path d="M620 517L726 430L618 336Z" fill="#d0d0d0" stroke="#d0d0d0"></path><path d="M662 316L720 174L619 207Z" fill="#bbbbbb" stroke="#bbbbbb"></path><path d="M620 517L698 494L726 430Z" fill="#c3c3c3" stroke="#c3c3c3"></path><path d="M393 530L493 600L472 497Z" fill="#d2d2d2" stroke="#d2d2d2"></path><path d="M620 517L667 600L698 494Z" fill="#d0d0d0" stroke="#d0d0d0"></path><path d="M493 600L570 600L472 497Z" fill="#c3c3c3" stroke="#c3c3c3"></path><path d="M386 204L294 223L307 278Z" fill="#bbbbbb" stroke="#bbbbbb"></path><path d="M228 281L239 421L303 411Z" fill="#cdcdcd" stroke="#cdcdcd"></path><path d="M267 80L294 223L386 204Z" fill="#d5d5d5" stroke="#d5d5d5"></path><path d="M478 137L425 111L473 186Z" fill="#d0d0d0" stroke="#d0d0d0"></path><path d="M318 600L402 600L393 530Z" fill="#d2d2d2" stroke="#d2d2d2"></path><path d="M393 530L402 600L493 600Z" fill="#cbcbcb" stroke="#cbcbcb"></path><path d="M786 286L720 174L662 316Z" fill="#d0d0d0" stroke="#d0d0d0"></path><path d="M619 207L584 79L478 137Z" fill="#d2d2d2" stroke="#d2d2d2"></path><path d="M478 137L431 0L425 111Z" fill="#cdcdcd" stroke="#cdcdcd"></path><path d="M726 430L786 286L662 316Z" fill="#cbcbcb" stroke="#cbcbcb"></path><path d="M303 411L239 421L334 481Z" fill="#d0d0d0" stroke="#d0d0d0"></path><path d="M334 481L318 600L393 530Z" fill="#c5c5c5" stroke="#c5c5c5"></path><path d="M228 281L303 411L307 278Z" fill="#cbcbcb" stroke="#cbcbcb"></path><path d="M685 104L584 79L619 207Z" fill="#d5d5d5" stroke="#d5d5d5"></path><path d="M698 494L775 464L726 430Z" fill="#d0d0d0" stroke="#d0d0d0"></path><path d="M726 430L796 410L786 286Z" fill="#cdcdcd" stroke="#cdcdcd"></path><path d="M837 600L775 464L698 494Z" fill="#d5d5d5" stroke="#d5d5d5"></path><path d="M775 464L796 410L726 430Z" fill="#bebebe" stroke="#bebebe"></path><path d="M570 600L667 600L620 517Z" fill="#d0d0d0" stroke="#d0d0d0"></path><path d="M294 223L228 281L307 278Z" fill="#c3c3c3" stroke="#c3c3c3"></path><path d="M814 117L685 104L720 174Z" fill="#c5c5c5" stroke="#c5c5c5"></path><path d="M720 174L685 104L619 207Z" fill="#c0c0c0" stroke="#c0c0c0"></path><path d="M204 491L318 600L334 481Z" fill="#c8c8c8" stroke="#c8c8c8"></path><path d="M267 80L226 194L294 223Z" fill="#c5c5c5" stroke="#c5c5c5"></path><path d="M294 223L226 194L228 281Z" fill="#c0c0c0" stroke="#c0c0c0"></path><path d="M73 416L204 491L239 421Z" fill="#cbcbcb" stroke="#cbcbcb"></path><path d="M239 421L204 491L334 481Z" fill="#d0d0d0" stroke="#d0d0d0"></path><path d="M138 272L239 421L228 281Z" fill="#cbcbcb" stroke="#cbcbcb"></path><path d="M786 286L829 232L720 174Z" fill="#bebebe" stroke="#bebebe"></path><path d="M900 260L829 232L786 286Z" fill="#c5c5c5" stroke="#c5c5c5"></path><path d="M572 0L539 0L584 79Z" fill="#bebebe" stroke="#bebebe"></path><path d="M584 79L539 0L478 137Z" fill="#c0c0c0" stroke="#c0c0c0"></path><path d="M425 111L267 80L386 204Z" fill="#c3c3c3" stroke="#c3c3c3"></path><path d="M662 0L572 0L584 79Z" fill="#d5d5d5" stroke="#d5d5d5"></path><path d="M662 0L584 79L685 104Z" fill="#c0c0c0" stroke="#c0c0c0"></path><path d="M539 0L431 0L478 137Z" fill="#bbbbbb" stroke="#bbbbbb"></path><path d="M431 0L267 80L425 111Z" fill="#c8c8c8" stroke="#c8c8c8"></path><path d="M829 232L814 117L720 174Z" fill="#c5c5c5" stroke="#c5c5c5"></path><path d="M792 0L662 0L685 104Z" fill="#cdcdcd" stroke="#cdcdcd"></path><path d="M71 213L138 272L226 194Z" fill="#d5d5d5" stroke="#d5d5d5"></path><path d="M226 194L138 272L228 281Z" fill="#c3c3c3" stroke="#c3c3c3"></path><path d="M900 509L900 363L796 410Z" fill="#c5c5c5" stroke="#c5c5c5"></path><path d="M796 410L900 363L786 286Z" fill="#cdcdcd" stroke="#cdcdcd"></path><path d="M829 232L900 188L814 117Z" fill="#d0d0d0" stroke="#d0d0d0"></path><path d="M900 509L796 410L775 464Z" fill="#bebebe" stroke="#bebebe"></path><path d="M267 80L214 106L226 194Z" fill="#d2d2d2" stroke="#d2d2d2"></path><path d="M900 363L900 260L786 286Z" fill="#c8c8c8" stroke="#c8c8c8"></path><path d="M667 600L837 600L698 494Z" fill="#cdcdcd" stroke="#cdcdcd"></path><path d="M837 600L900 509L775 464Z" fill="#c8c8c8" stroke="#c8c8c8"></path><path d="M900 260L900 188L829 232Z" fill="#d5d5d5" stroke="#d5d5d5"></path><path d="M93 512L164 600L204 491Z" fill="#d2d2d2" stroke="#d2d2d2"></path><path d="M204 491L164 600L318 600Z" fill="#cbcbcb" stroke="#cbcbcb"></path><path d="M431 0L271 0L267 80Z" fill="#c8c8c8" stroke="#c8c8c8"></path><path d="M267 80L203 0L214 106Z" fill="#c0c0c0" stroke="#c0c0c0"></path><path d="M138 272L73 416L239 421Z" fill="#d2d2d2" stroke="#d2d2d2"></path><path d="M73 416L93 512L204 491Z" fill="#c8c8c8" stroke="#c8c8c8"></path><path d="M900 60L792 0L814 117Z" fill="#bbbbbb" stroke="#bbbbbb"></path><path d="M814 117L792 0L685 104Z" fill="#bbbbbb" stroke="#bbbbbb"></path><path d="M837 600L900 600L900 509Z" fill="#c0c0c0" stroke="#c0c0c0"></path><path d="M94 120L71 213L226 194Z" fill="#bbbbbb" stroke="#bbbbbb"></path><path d="M0 273L0 412L73 416Z" fill="#c0c0c0" stroke="#c0c0c0"></path><path d="M94 120L226 194L214 106Z" fill="#c3c3c3" stroke="#c3c3c3"></path><path d="M271 0L203 0L267 80Z" fill="#cbcbcb" stroke="#cbcbcb"></path><path d="M203 0L94 120L214 106Z" fill="#c3c3c3" stroke="#c3c3c3"></path><path d="M900 188L900 60L814 117Z" fill="#d2d2d2" stroke="#d2d2d2"></path><path d="M0 493L93 512L73 416Z" fill="#c0c0c0" stroke="#c0c0c0"></path><path d="M0 493L73 600L93 512Z" fill="#bbbbbb" stroke="#bbbbbb"></path><path d="M93 512L73 600L164 600Z" fill="#d0d0d0" stroke="#d0d0d0"></path><path d="M0 273L73 416L138 272Z" fill="#c8c8c8" stroke="#c8c8c8"></path><path d="M0 273L138 272L71 213Z" fill="#d0d0d0" stroke="#d0d0d0"></path><path d="M0 234L0 273L71 213Z" fill="#bebebe" stroke="#bebebe"></path><path d="M900 60L900 0L792 0Z" fill="#cbcbcb" stroke="#cbcbcb"></path><path d="M0 81L0 234L71 213Z" fill="#d2d2d2" stroke="#d2d2d2"></path><path d="M0 412L0 493L73 416Z" fill="#d2d2d2" stroke="#d2d2d2"></path><path d="M203 0L92 0L94 120Z" fill="#c5c5c5" stroke="#c5c5c5"></path><path d="M94 120L0 81L71 213Z" fill="#c5c5c5" stroke="#c5c5c5"></path><path d="M0 493L0 600L73 600Z" fill="#cbcbcb" stroke="#cbcbcb"></path><path d="M92 0L0 81L94 120Z" fill="#cbcbcb" stroke="#cbcbcb"></path><path d="M92 0L0 0L0 81Z" fill="#c8c8c8" stroke="#c8c8c8"></path></g></svg>